<?xml version="1.0" encoding="UTF-8" standalone="no"?>
<!-- Created with Inkscape (http://www.inkscape.org/) -->

<svg
   version="1.1"
   id="svg132"
   width="359.98315"
   height="160.91489"
   viewBox="0 0 359.98315 160.91489"
   sodipodi:docname="imagem 5.png"
   xmlns:inkscape="http://www.inkscape.org/namespaces/inkscape"
   xmlns:sodipodi="http://sodipodi.sourceforge.net/DTD/sodipodi-0.dtd"
   xmlns:xlink="http://www.w3.org/1999/xlink"
   xmlns="http://www.w3.org/2000/svg"
   xmlns:svg="http://www.w3.org/2000/svg">
  <defs
     id="defs136">
    <linearGradient
       inkscape:collect="always"
       id="linearGradient6068">
      <stop
         style="stop-color:#ff6600;stop-opacity:0;"
         offset="0"
         id="stop6066" />
      <stop
         style="stop-color:#ff6600;stop-opacity:1;"
         offset="1"
         id="stop6064" />
    </linearGradient>
    <linearGradient
       inkscape:collect="always"
       xlink:href="#linearGradient6068"
       id="linearGradient6070"
       x1="0.016855059"
       y1="109.97918"
       x2="360"
       y2="109.97918"
       gradientUnits="userSpaceOnUse" />
  </defs>
  <sodipodi:namedview
     id="namedview134"
     pagecolor="#ffffff"
     bordercolor="#000000"
     borderopacity="0.25"
     inkscape:showpageshadow="2"
     inkscape:pageopacity="0.0"
     inkscape:pagecheckerboard="0"
     inkscape:deskcolor="#d1d1d1"
     showgrid="false" />
  <g
     inkscape:groupmode="layer"
     inkscape:label="Image"
     id="g138"
     transform="translate(-0.01685506,-29.521744)">
    <path
       id="path439"
       style="fill:url(#linearGradient6070);fill-opacity:1"
       d="m 105.28638,29.521744 c -10.179365,0 -16.269525,0.374351 -16.269525,1 0,0.625675 6.090435,1 16.271485,1 h 16.27343 l 8.45508,8.5 8.45508,8.5 h -5.11133 c -4.3502,0 -5.35826,-0.372975 -6.75195,-2.5 -3.1754,-4.846161 -10.5918,-2.454372 -10.5918,3.416016 0,5.80339 7.4792,8.334311 10.5918,3.583984 1.61755,-2.468656 1.80326,-2.498561 14.77343,-2.371094 l 13.13477,0.128907 7.93555,8.371093 7.93359,8.371094 h -18.06836 c -18.01951,0 -18.07421,-0.0064 -19.6582,-2.423828 -2.16676,-3.306841 -5.19799,-4.098045 -8.19141,-2.136719 -3.29778,2.160875 -3.42595,7.764387 -0.22851,10.003907 2.05264,1.43783 1.0525,1.55664 -13.10547,1.55664 -15.158838,0 -15.350204,-0.0276 -17.29492,-2.5 -3.711444,-4.718312 -10.822265,-2.240545 -10.822265,3.771485 0,1.56813 0.88967,3.238215 2.222656,4.171875 2.036086,1.42613 0.06508,1.55664 -23.5,1.55664 -16.480975,0 -25.722656,0.35929 -25.722656,1 0,0.64395 10.461181,1 29.382812,1 h 29.384766 l 3.451172,-3.820312 3.451165,-3.820313 22.41602,0.07031 22.41406,0.07031 3.62109,-3.25 3.6211,-3.25 h 23.35351 23.35352 l -7.44922,7.5 -7.44922,7.5 h -7.88086 c -7.21503,0 -8.04767,-0.21124 -9.84765,-2.5 -1.13269,-1.43992 -2.99636,-2.5 -4.39454,-2.5 -2.83905,0 -6.42773,3.225094 -6.42773,5.777344 0,3.18332 2.9223,6.222656 5.98438,6.222656 2.7864,0 6.01562,-2.185925 6.01562,-4.072265 0,-0.53848 7.89718,-0.927735 18.79688,-0.927735 h 18.79492 l 6.63086,6.341797 c 6.48414,6.203322 6.61764,6.434142 6.07226,10.500004 -0.5202,3.87839 -0.76868,4.15821 -3.70703,4.15821 -2.52318,0 -4.33144,-1.19359 -9.08789,-6 l -5.9375,-6.000011 h -35.38672 -35.38672 l -3.00781,-2.53125 c -3.12086,-2.625968 -5.85034,-2.610938 -8.65625,0.04883 -2.13178,2.02072 -1.67489,6.618149 0.86133,8.671881 2.22623,1.80264 2.21372,1.81055 -2.875,1.81055 -3.61442,0 -5.11133,-0.3945 -5.11133,-1.34571 0,-1.9286 -3.31138,-4.654299 -5.6543,-4.654299 -2.40477,0 -6.345695,3.948949 -6.345695,6.359379 0,2.17091 4.374915,6.64063 6.499995,6.64063 0.87498,0 2.71682,-1.1252 4.0918,-2.5 l 2.5,-2.5 26.20312,0.043 26.20508,0.043 5.5,4.94727 5.5,4.94531 -37.41406,0.01 -37.41406,0.0117 -6.75,-6 -6.751954,-6 H 57.102792 c -19.389247,-0.004 -30.085937,0.35552 -30.085937,1 0,0.6336 7.391497,1 20.173828,1 h 20.173828 l -2.347656,2.5 -2.347657,2.5 -25.076172,-0.006 -25.076171,-0.006 -1.703125,-2.99414 c -3.0727448,-5.40006 -10.79687493,-3.30793 -10.79687494,2.92382 0,5.80342 7.47924014,8.33238 10.59179694,3.58204 l 1.638671,-2.5 h 25.697266 25.697266 l 2.875,-3 c 2.767174,-2.88844 3.201159,-3 11.675781,-3 h 8.802734 l 5.521485,5 5.521484,5 H 89.18873 c -8.442984,0 -8.901865,-0.11388 -9.976563,-2.47266 -2.444084,-5.36404 -11.195312,-3.56267 -11.195312,2.30469 0,6.11301 5.15697,8.59026 9.78125,4.69922 l 3.007812,-2.53125 h 52.835933 52.83594 l -9.46094,9.5 -9.46094,9.5 -6.01953,-0.008 -6.01953,-0.006 -5.85547,-5.99414 -5.85547,-5.99218 h -29.39453 c -18.929107,5.7e-4 -29.394525,0.35601 -29.394525,1 0,0.59015 3.57149,1 8.71289,1 h 8.712885 l -4.925775,5 -4.925782,5 H 58.803964 c -18.582368,0 -33.787119,0.3375 -33.787109,0.75 0,0.4125 15.580911,0.72057 34.623047,0.68359 l 34.623046,-0.0684 5.462891,-5.68164 5.460931,-5.68359 h 19.20313 19.20117 l 4.92578,5 4.92578,5 h -13.09765 c -12.8666,0 -13.12712,-0.044 -14.73633,-2.5 -3.1754,-4.84637 -10.5918,-2.45441 -10.5918,3.41601 0,5.80342 7.4792,8.33433 10.5918,3.58399 l 1.63867,-2.5 h 18.09766 18.09765 l -4.92578,5 -4.92578,5 h -34.3457 c -22.642226,0 -34.135955,0.34075 -33.728515,1 0.39223,0.63468 12.937985,1 34.339835,1 h 33.72266 l 5.9375,-6 c 3.26557,-3.3 6.59194,-6 7.39063,-6 0.79871,0 2.18239,-0.66185 3.07617,-1.47071 1.46194,-1.32304 2.72353,-0.36957 12.55664,9.49414 l 10.92969,10.96485 -6.44727,6.50586 -6.44727,6.50586 H 140.9563 101.33716 l -1.125,-2.47266 c -2.478818,-5.44044 -11.195305,-3.55357 -11.195305,2.42383 0,1.59804 0.707995,3.6125 1.572265,4.47656 2.183294,2.1834 6.762989,1.96418 8.927735,-0.42773 1.752585,-1.93664 3.082305,-2 41.896485,-2 h 40.08398 l 19.18359,-19.16407 19.1836,-19.16601 1.59375,5.41601 c 0.8766,2.97784 2.93608,7.84905 4.57617,10.82422 1.6401,2.97515 2.98242,5.83206 2.98242,6.34766 0,0.5156 -2.99925,4.04352 -6.66406,7.83984 l -6.66406,6.90235 -11.08594,0.21093 -11.08594,0.21094 10.23047,0.32422 10.22852,0.32422 -4.68555,4.96484 -4.6875,4.96485 h -21.57031 c -20.33248,0 -21.669,-0.11494 -23.28321,-2 -0.94185,-1.1 -2.84251,-2 -4.22265,-2 -2.90927,0 -6.50977,3.19551 -6.50977,5.77734 0,0.97763 0.71846,2.80223 1.5957,4.05469 2.05209,2.92965 8.11977,2.72418 9.80274,-0.33203 0.60571,-1.1 1.25225,-2.225 1.43555,-2.5 0.1831,-0.275 9.98019,-0.52509 21.77148,-0.55469 l 21.43945,-0.0527 5.98828,-5.92578 c 8.13907,-8.1854 2.62645,-2.72428 13.22657,-13.22851 l 6.26172,-6.20508 8.66796,8.41992 c 6.92895,6.72902 10.54173,9.34072 17.99024,13.00781 3.05658,1.8018 7.57105,3.52527 9.59637,4.30514 3.35874,0.91399 5.86536,1.6129 8.75184,2.29229 2.18456,0.52035 8.24808,0.95847 13.47266,0.97461 21.31377,0.0659 40.26242,-8.84823 54.30273,-25.54688 10.92527,-12.99377 16.71555,-28.89238 16.67969,-45.79883 -0.025,-11.78666 -2.22568,-20.760501 -7.89258,-32.185549 -12.63762,-25.474707 -40.07384,-41.254423 -68.02009,-39.110772 -10.68816,1.469442 -10.18411,1.563642 -14.19308,2.37723 l -6.62332,2.218478 c -18.31957,7.167389 -35.58611,24.912879 -41.23242,42.373047 l -1.24805,3.857422 -6.16406,-6.107422 -6.16407,-6.109375 h -9.83789 -9.83984 l 7.29883,-7.5 7.29687,-7.5 h 13.61914 c 9.15141,0 14.00553,0.388384 14.80078,1.183594 1.66823,1.66814 2.7703,0.188094 1.23633,-1.660156 -0.94253,-1.13563 -3.32698,-1.523438 -9.35351,-1.523438 h -8.08789 l -8.63086,-9 -8.63086,-9 h -8.43555 c -7.198,0 -8.68719,-0.293449 -10.14844,-2 -3.45048,-4.030188 -10.73242,-1.433138 -10.73242,3.828125 0,2.862068 3.40334,6.171875 6.3457,6.171875 2.41905,0 5.6543,-2.762611 5.6543,-4.828125 0,-0.794521 2.50005,-1.171875 7.77344,-1.171875 h 7.77344 l 7.95312,8 7.95313,8 h -19.4961 -19.49609 l -9.46094,-9.5 -9.46094,-9.5 h -7.03906 -7.03906 l -9.46094,-9.5 -9.46094,-9.5 z m 15.81641,16.199219 c 1.43879,-0.167254 3.15697,0.387188 3.87305,1.25 1.4723,1.774188 0.0231,2.13237 -1.69141,0.417969 -1.62059,-1.620593 -4.26758,-0.297723 -4.26758,2.132812 0,2.430555 2.64699,3.753386 4.26758,2.132813 1.71444,-1.714421 3.16371,-1.356239 1.69141,0.417969 -0.71608,0.862812 -2.43426,1.417234 -3.87305,1.25 -2.23101,-0.259323 -2.58594,-0.780839 -2.58594,-3.800782 0,-3.019943 0.35493,-3.541458 2.58594,-3.800781 z m 54.65039,1.757813 c 0.93884,-0.04183 1.86321,0.241914 2.59766,0.976562 0.80435,0.804511 0.2713,0.936684 -1.97071,0.488281 -3.66256,-0.732511 -5.19943,1.597566 -2.70117,4.095703 1.43516,1.435111 1.74467,1.424018 3.46289,-0.130859 2.38153,-2.155174 3.55513,-1.209342 1.29883,1.046875 -2.02882,2.028745 -5.32297,1.698719 -6.81641,-0.683594 -1.63636,-2.61027 1.31237,-5.667511 4.12891,-5.792968 z m 114.4043,0.191406 c 5.07773,0.02911 9.9815,0.428341 13.78906,1.238281 21.36345,4.54461 41.19128,21.483819 49.64453,42.412109 12.22208,30.258608 1.17285,65.848518 -26.10938,84.095708 -17.47772,11.68995 -39.38844,14.9673 -58.74218,8.78515 -10.86694,-3.47112 -21.01973,-9.77403 -29.22266,-18.14062 -11.53416,-11.76428 -17.67563,-24.59719 -19.53906,-40.82813 -3.78179,-32.940167 15.63724,-63.456157 47.59961,-74.796873 5.16789,-1.833711 14.11709,-2.81416 22.58008,-2.765625 z m -4.39063,0.86914 c -15.93229,0.06509 -36.56746,10.003498 -48.20703,23.21875 -9.09781,10.32953 -17.32322,31.232738 -16.2793,41.371098 0.28291,2.74761 0.44968,3.07085 0.56836,1.09961 0.43159,-7.16838 3.65452,-18.938548 7.17578,-26.207036 5.58526,-11.52755 12.30951,-19.247591 22.98828,-26.390625 10.46604,-7.000604 19.15825,-10.118677 30.25391,-10.853515 8.12417,-0.538044 10.82985,-2.268231 3.5,-2.238282 z m 3.43555,3.894532 c -5.65924,-0.01826 -11.37267,0.337734 -14.68555,1.074218 -7.60567,1.690936 -20.24952,8.246224 -27.50391,14.259766 -6.05977,5.023625 -14.95697,16.125096 -13.82812,17.253906 0.275,0.275 2.25981,-2.05671 4.41211,-5.18164 7.84816,-11.3953 23.83434,-21.816017 38.10547,-24.839844 13.2356,-2.804523 26.12021,-1.347637 39.74414,4.492187 2.66887,1.144066 5.08518,1.846458 5.36914,1.5625 0.75573,-0.755688 -11.4845,-6.044004 -17.25,-7.453125 -3.09834,-0.757178 -8.70446,-1.149701 -14.36328,-1.167968 z m 0.81445,2.24414 c -5.14883,-0.08924 -10.30014,0.514456 -15.39062,1.816406 -20.70642,5.295815 -36.46491,19.430377 -44.27149,39.708985 -3.43861,8.931745 -4.34172,25.382565 -1.95117,35.568365 2.88979,12.31293 10.37981,24.39439 20.61328,33.24804 6.25464,5.41147 18.95708,11.76072 26.79883,13.39649 7.26043,1.51452 21.55062,1.27603 28.20117,-0.47071 17.21068,-4.52004 32.90157,-17.4072 40.69727,-33.42382 4.92111,-10.11163 6.30273,-16.17041 6.30273,-27.6543 0,-24.033087 -13.657,-45.559502 -35.5293,-56.001956 -8.30827,-3.966646 -16.88905,-6.038759 -25.4707,-6.1875 z m -1.75781,1.84375 c 0.0875,0 0.21816,0.25002 0.41992,0.75 0.31124,0.771288 2.29247,1.2119 5.17188,1.150391 3.82792,-0.08177 4.21679,-0.243639 2.16601,-0.900391 l -2.5,-0.800781 2.75,-0.09961 c 1.72277,-0.06245 2.75,0.416617 2.75,1.283203 0,0.760832 0.90164,1.619953 2.00391,1.908203 1.25893,0.329254 1.79467,1.072404 1.43945,1.998047 -0.55436,1.444569 3.89792,3.710937 7.28906,3.710937 2.54865,0 0.74647,-2.326651 -2.79297,-3.605468 -1.89138,-0.683527 -2.62562,-1.276517 -1.63086,-1.31836 1.10286,-0.04638 1.53071,-0.526647 1.09571,-1.230469 -0.44563,-0.720998 -0.27419,-0.883541 0.45703,-0.43164 0.64396,0.397964 0.91214,1.142323 0.5957,1.654297 -0.31643,0.511976 0.15305,0.93164 1.04297,0.93164 0.88992,0 1.34383,-0.444623 1.00781,-0.988281 -0.35707,-0.577738 0.0674,-0.728195 1.02344,-0.361328 1.05216,0.403711 1.24722,0.867844 0.54688,1.300781 -0.62426,0.385931 0.42184,1.39365 2.45117,2.361328 4.12658,1.967946 5.88032,2.159785 4.875,0.533203 -0.43207,-0.699059 -0.27381,-0.884431 0.39843,-0.46875 0.61096,0.377593 0.90418,1.234453 0.65235,1.904297 -0.55755,1.483012 5.2943,4.99092 6.78711,4.06836 0.64958,-0.40145 0.77236,-0.18156 0.3125,0.5625 -0.44222,0.71551 0.0115,1.801716 1.0957,2.623046 2.84234,2.15327 3.8659,1.722684 1.86719,-0.785156 -0.98623,-1.23746 0.54328,0.17126 3.40039,3.13086 2.93975,3.04519 4.96857,5.974896 4.67187,6.748046 -0.71859,1.87307 3.47915,8.875922 4.41407,7.363282 0.49833,-0.8063 0.90944,-0.660268 1.3457,0.476562 0.36687,0.95599 0.21642,1.380478 -0.36133,1.023438 -1.30139,-0.80428 -1.30487,-0.822661 1.01563,5.779297 1.70198,4.842772 2.22337,6.744532 2.9375,10.728522 0.0493,0.275 0.52543,-0.175 1.05859,-1 0.83841,-1.29732 0.97113,-1.27556 0.98438,0.16601 0.008,0.91644 -0.54688,1.90445 -1.23438,2.19336 -0.89515,0.37595 -0.75321,0.83954 0.5,1.63281 1.36614,0.86475 1.71686,2.35687 1.59961,6.80664 l -0.15039,5.70118 -0.69922,-4.5 c -0.55465,-3.56756 -0.7377,-3.87837 -0.88672,-1.5 -0.46931,7.49019 -2.43747,16.96868 -4.80078,23.12695 -0.43828,1.14214 -0.27254,1.46621 0.50391,0.98633 0.83147,-0.51387 0.91659,-0.0682 0.30468,1.58594 -0.46809,1.26518 -1.36864,2.30078 -2.00195,2.30078 -0.6333,0 -2.04134,1.35 -3.12891,3 -2.22056,3.36936 -2.5641,4.97236 -0.83593,3.90429 0.6991,-0.43207 0.88448,-0.274 0.46875,0.39844 -0.37759,0.61096 -1.42526,0.82693 -2.32813,0.48047 -0.62309,-0.2391 -0.98431,-0.29002 -1.13476,-0.12109 0.53312,-1.20522 1.36322,-2.71051 2.38476,-4.22852 1.9005,-2.82392 3.48674,-5.65097 3.52539,-6.2832 0.0387,-0.63223 0.49584,-0.25039 1.01563,0.84961 0.80057,1.69397 0.86793,1.59618 0.4375,-0.64454 -0.27946,-1.45467 0.11079,-4.15487 0.86914,-6 2.33743,-5.68694 2.94691,-9.85633 1.4375,-9.8457 -0.77865,0.005 -2.24336,3.01942 -3.53516,7.27539 -2.71865,8.95751 -8.1955,17.53259 -15.68359,24.56055 -4.44592,4.17274 -5.4507,5.64277 -4.58203,6.68945 0.87013,1.04845 0.38706,1.7145 -2.20899,3.05664 -2.80674,1.45127 -3.1192,1.47572 -2.02148,0.15235 1.86473,-2.24807 -0.0435,-2.96553 -3.42774,-1.28907 -1.57888,0.78246 -4.10859,1.88889 -5.62109,2.45899 -2.78196,1.04859 -3.80121,3.11893 -1.5,3.04687 0.6875,-0.0215 2.79968,-0.71163 4.69336,-1.5332 1.89369,-0.82134 4.08245,-1.24885 4.86328,-0.94922 1.70557,0.65427 8.76976,-3.48729 7.44531,-4.36523 -0.50923,-0.33755 1.70657,-3.02823 4.92383,-5.97852 3.21745,-2.9505 5.57123,-4.638 5.23047,-3.75 -0.34076,0.88779 -1.02251,1.61524 -1.51367,1.61524 -0.49116,0 -0.89258,0.51904 -0.89258,1.15429 0,0.64831 0.89272,0.34835 2.03516,-0.68554 1.11939,-1.01304 1.81482,-2.41776 1.54492,-3.1211 -0.12205,-0.31804 0.11867,-1.12013 0.55664,-2.12304 -0.1077,0.20032 -0.0364,0.59281 0.21875,1.25781 0.90137,2.34892 -2.90506,6.6271 -5.13477,5.77148 -1.12978,-0.43354 -1.39792,-0.16027 -0.96093,0.97852 0.36565,0.95286 -0.26159,2.31154 -1.57813,3.42383 l -2.18164,1.84375 1.9043,-2.25 c 1.04774,-1.2375 1.45626,-2.25 0.90625,-2.25 -1.33859,0 -4.46438,3.51413 -3.75586,4.22265 0.58001,0.58001 -3.29252,3.56952 -7.42578,5.73438 -1.90781,0.99914 -2.21745,0.99302 -1.58594,-0.0273 0.54406,-0.88032 0.31055,-1.08725 -0.76172,-0.67578 -4.37902,1.68024 -15.2176,4.7461 -16.7793,4.7461 -0.98322,0 -2.04669,0.675 -2.36328,1.5 -0.43237,1.12675 -2.01462,1.45257 -6.35742,1.31054 l -5.78125,-0.18945 5.77734,-0.36133 c 3.17771,-0.19891 5.5708,-0.69505 5.31836,-1.10351 -0.25245,-0.40847 -3.18957,-0.48123 -6.52734,-0.16211 -3.33777,0.31913 -6.06836,0.22572 -6.06836,-0.20703 0,-0.43276 -1.2375,-0.75546 -2.75,-0.7168 -2.43684,0.0623 -2.52225,0.16813 -0.75,0.92969 1.64336,0.70617 1.69594,0.87193 0.29883,0.92968 -0.93517,0.0387 -2.06017,-0.53304 -2.5,-1.26953 -1.10814,-1.85556 -7.67438,-4.03157 -8.1211,-2.6914 -0.18891,0.56731 -0.74355,1.03125 -1.23046,1.03125 -0.4869,0 -0.62518,-0.675 -0.3086,-1.5 0.31659,-0.825 0.11379,-1.5 -0.44922,-1.5 -0.56301,0 -1.24993,0.5625 -1.52734,1.25 -0.30132,0.74674 -0.53682,0.54544 -0.58398,-0.5 -0.0433,-0.9625 -0.55426,-1.75 -1.13672,-1.75 -0.58246,0 -0.78524,0.44458 -0.44922,0.98828 0.35708,0.57775 -0.0674,0.7282 -1.02344,0.36133 -1.19947,-0.46028 -1.31178,-0.82845 -0.41797,-1.38086 1.55852,-0.96321 -2.29694,-3.1946 -4.23437,-2.45118 -1.60063,0.61422 -8.87411,-5.15343 -8.54688,-6.77734 0.12703,-0.63018 -0.54664,-1.1679 -1.49609,-1.19336 -0.94945,-0.0257 -3.57464,-2.50562 -5.83399,-5.50976 -4.8156,-6.40383 -7.7464,-11.6535 -5.85156,-10.48243 0.83441,0.5157 1.07363,0.30139 0.71875,-0.64062 -2.14132,-5.68375 -1.30175,-5.29152 2.0918,0.97851 4.55227,8.41173 9.00223,13.60715 10.42969,12.17969 0.58776,-0.58776 -0.3593,-2.45853 -2.52149,-4.98437 -6.94913,-8.11928 -11.80664,-21.68922 -11.80664,-32.98243 0,-5.00338 -0.29829,-6.10546 -1.64844,-6.10546 -1.44978,0 -1.56798,0.99045 -0.99218,8.25 0.35966,4.5373 0.88901,9.375 1.17578,10.75 l 0.52148,2.5 -1.05469,-2.40821 c -0.57985,-1.32418 -1.37603,-5.8244 -1.76953,-10 l -0.71484,-7.59179 -0.60156,5 -0.60157,5 -0.1582,-6.20118 c -0.12491,-4.92957 0.20235,-6.4259 1.59375,-7.30664 1.25321,-0.79327 1.39515,-1.25686 0.5,-1.63281 -0.6875,-0.28891 -1.19837,-1.50192 -1.13477,-2.69336 0.10945,-2.04433 0.14827,-2.053 0.66797,-0.16601 0.40677,1.4768 0.99882,0.56155 2.26758,-3.5 0.94491,-3.024932 1.32064,-5.650681 0.83399,-5.833991 -1.07276,-0.40413 -1.19191,-2.213795 -0.13477,-2.046875 1.97547,0.31189 2.59942,-0.247131 1.25,-1.119141 -1.2819,-0.82839 -1.24555,-0.971285 0.25,-0.984375 0.9625,-0.008 1.75,-0.491761 1.75,-1.074219 0,-0.58241 -0.44458,-0.785238 -0.98828,-0.449218 -0.56607,0.34981 -0.73429,-0.0482 -0.39453,-0.933594 0.32633,-0.85036 0.97273,-1.312621 1.4375,-1.025391 0.46477,0.28724 1.31693,-0.360253 1.89453,-1.439453 1.36532,-2.551 1.33131,-3.384777 -0.10352,-2.498047 -0.72104,0.44563 -0.88356,0.274149 -0.43164,-0.457031 0.39798,-0.64391 1.11195,-0.931602 1.58594,-0.638672 0.47399,0.29294 1.14497,0.07461 1.49023,-0.484375 0.34546,-0.55893 0.12469,-1.015625 -0.49023,-1.015625 -0.61492,0 -0.8098,-0.498702 -0.43359,-1.107422 0.49104,-0.79446 0.89168,-0.77054 1.41992,0.08398 0.53008,0.85768 0.90592,0.748342 1.34375,-0.392578 0.34017,-0.88639 0.0933,-1.583985 -0.55859,-1.583985 -0.64041,0 0.38781,-1.61446 2.2832,-3.58789 4.03058,-4.19697 11.72118,-10.483189 10.59765,-8.66211 -1.0787,1.748764 0.58648,1.558374 2.90625,-0.332031 1.65743,-1.350432 1.68564,-1.501079 0.19141,-1.03125 -2.41068,0.757946 -2.19658,-0.07678 0.37109,-1.451172 1.49047,-0.797636 1.91912,-0.807962 1.44141,-0.03516 -0.84463,1.366582 -0.41096,1.373123 3.08789,0.04297 2.01721,-0.766925 2.42026,-1.282588 1.46484,-1.873047 -0.89926,-0.556014 0.14959,-1.313573 3.31055,-2.390625 2.54561,-0.867358 4.36541,-1.150605 4.04297,-0.628906 -0.32244,0.521727 -0.14796,0.949218 0.38867,0.949218 0.53663,0 1.20306,-0.562522 1.48047,-1.25 0.30132,-0.746699 0.53683,-0.545396 0.58399,0.5 0.0433,0.962458 -0.48438,1.749566 -1.17188,1.75 -2.38426,0.0015 -14.2767,6.1655 -19.50586,10.109375 -5.04032,3.80177 -13.24414,13.080949 -13.24414,14.980469 0,0.50057 0.675,0.910156 1.5,0.910156 0.825,0 1.5,-0.414705 1.5,-0.921875 0,-0.50715 3.0375,-4.050667 6.75,-7.873047 6.53577,-6.72961 16.41148,-12.870419 23.4082,-14.55664 1.9701,-0.474793 2.53114,-1.122681 2.16993,-2.503906 -0.5314,-2.032822 2.7562,-3.144532 9.29687,-3.144532 1.99123,0 3.40677,-0.51253 3.45313,-1.25 0.0316,-0.49998 0.0766,-0.75 0.16406,-0.75 z m -6.24219,0.128906 c 0.45312,0 0.90625,0.07028 1.25,0.208985 0.6875,0.277391 0.125,0.503906 -1.25,0.503906 -1.375,0 -1.9375,-0.226515 -1.25,-0.503906 0.34375,-0.138706 0.79688,-0.208984 1.25,-0.208985 z m 10.5,2.871094 c -3.025,0 -5.5,0.450042 -5.5,1 0,0.549978 1.2375,1.006162 2.75,1.013672 1.5125,0.0075 3.6614,0.259257 4.77539,0.558594 1.11398,0.299316 2.35148,0.216873 2.75,-0.181641 1.71873,-1.718647 0.37552,-2.390625 -4.77539,-2.390625 z m -164.5293,4.341797 c 0.30572,-0.011 0.598,0.02065 0.86524,0.105469 2.07205,0.657622 3.81002,3.552734 2.13281,3.552734 -0.53271,0 -0.96875,-0.482101 -0.96875,-1.070312 0,-0.588253 -1.01252,-0.925753 -2.25,-0.75 -1.47679,0.209719 -2.25,1.007644 -2.25,2.320312 0,1.65185 0.60922,1.970645 3.5,1.828125 3.25531,-0.16049 3.364,-0.0731 1.55859,1.25 -2.50386,1.83504 -4.04079,1.7953 -5.98632,-0.15039 -0.86429,-0.86426 -1.57227,-2.1433 -1.57227,-2.84375 0,-1.919335 2.83085,-4.165189 4.9707,-4.242188 z m 161.0293,2.242188 c -8.99342,-0.03405 -21.43057,2.989285 -24.36328,5.921875 -0.81727,0.81724 -2.61615,1.916006 -3.99805,2.441406 -3.95597,1.50414 -17.09089,17.999043 -19.67968,24.714848 -2.80288,7.271032 -3.7448,21.222962 -1.97266,29.222652 0.68405,3.08774 2.76753,8.22622 4.6289,11.41797 1.86179,3.19196 3.38477,6.23369 3.38477,6.75781 0,1.97758 12.33649,12.99654 16.82227,15.02539 15.68203,7.09357 27.63909,8.61325 39.17773,4.97852 13.99015,-4.40672 23.22583,-12.09911 29.74023,-24.77344 8.30472,-16.15672 9.21286,-29.72676 2.91407,-43.490232 -7.20756,-15.748253 -14.4561,-22.954948 -28.6543,-28.484378 -8.24668,-3.211678 -10.62144,-3.704487 -18,-3.732421 z m -35.16211,2.921875 c -0.35467,-0.35466 -3.02514,1.624097 -5.93359,4.398437 -2.90886,2.77435 -5.06202,5.271978 -4.78516,5.548828 0.27687,0.27687 2.09183,-1.22606 4.0332,-3.33789 1.94178,-2.11183 4.38698,-4.317644 5.43165,-4.902344 1.04469,-0.58475 1.60858,-1.352381 1.2539,-1.707031 z m -111.23633,0.49414 h 8.50977 l -2.80469,2.46875 c -2.48765,2.18849 -3.7374,2.47198 -11.01172,2.5 l -8.20312,0.03125 2.5,-2.5 c 2.27494,-2.27488 3.2658,-2.5 11.00976,-2.5 z m 158.87891,0 c 1.66009,0 8.51953,3.393524 8.51953,4.214844 0,0.55436 -0.77826,0.682912 -1.75,0.289062 -0.9625,-0.39005 -2.9875,-1.155594 -4.5,-1.703124 -2.29834,-0.83201 -3.89322,-2.800782 -2.26953,-2.800782 z m -211.759762,1.94336 c 0.932691,-0.0487 1.850637,0.227578 2.578125,0.955078 1.613638,1.61362 -0.01754,2.579468 -1.824219,1.080078 -1.311836,-1.08873 -1.851673,-1.029208 -3.238281,0.357422 -1.552066,1.55205 -1.552372,1.777806 0.01758,3.347656 1.577478,1.57746 1.811248,1.56647 3.714844,-0.15625 1.64152,-1.48564 2.03125,-1.552489 2.03125,-0.349609 0,0.81856 -0.320971,1.809301 -0.712891,2.201171 -1.239996,1.24003 -5.541863,0.191404 -6.681641,-1.628906 -1.621235,-2.58922 1.317162,-5.66062 4.115235,-5.80664 z m 197.134762,2.132812 c 1.56567,-0.0437 3.3484,-0.0347 5.49805,0.0098 11.24158,0.22628 16.79738,1.357877 16.0625,3.273437 -0.45384,1.18264 5.6531,4.899473 8.32226,5.064453 0.6813,0.0421 2.08734,1.651252 3.12305,3.576172 1.05257,1.95625 2.65982,3.5028 3.64453,3.50586 1.08384,0.003 2.92816,2.070495 4.79297,5.371093 2.72774,4.828057 3.0738,6.429169 3.45898,15.994139 0.23542,5.84594 0.84335,11.1345 1.35157,11.75195 1.4196,1.72523 -0.77554,10.09512 -4.4043,16.79102 -1.76279,3.25276 -3.57339,5.80814 -4.02344,5.67773 -0.45005,-0.13041 -3.05064,1.84968 -5.77734,4.40039 -5.50152,5.14581 -15.76838,10.41106 -21.90625,11.23438 -2.45432,0.32919 -3.99805,1.06415 -3.99805,1.9043 0,1.49173 -2.08973,1.43979 -3.18164,-0.0781 -0.37436,-0.52076 -4.20102,-0.99133 -8.50391,-1.04687 -6.24063,-0.0805 -8.6721,-0.57872 -12.01757,-2.45899 -2.30681,-1.29651 -4.11679,-2.62396 -4.02344,-2.95117 0.25276,-0.88589 -12.64841,-13.57485 -13.53516,-13.3125 -1.28077,0.37891 -4.78234,-6.13941 -3.66797,-6.82813 0.66184,-0.40905 0.5983,-1.61844 -0.1875,-3.53711 -0.65708,-1.60417 -1.25734,-3.36796 -1.33398,-3.91796 -0.0766,-0.55 -0.49115,-3.47521 -0.91992,-6.5 -0.91976,-6.4888 1.08542,-17.56026 4.33203,-23.92383 1.16312,-2.27981 1.89214,-4.505536 1.61914,-4.947266 -0.273,-0.44168 0.81507,-2.339966 2.41992,-4.216796 1.60484,-1.87683 2.93664,-3.04368 2.95899,-2.59375 0.0783,1.57644 6.19004,-3.578204 7.10937,-5.996094 0.51078,-1.34341 1.34841,-2.184168 1.86133,-1.867188 0.51292,0.317 4.38411,-0.581556 8.60351,-1.998046 4.87627,-1.63685 7.62525,-2.24981 12.32227,-2.38086 z m 44.4375,1.28125 c -0.18125,0.0692 -0.29297,0.250411 -0.29297,0.525391 0,0.54998 0.45,1.277287 1,1.617187 0.55,0.33992 1,0.167148 1,-0.382812 0,-0.55 -0.45,-1.277268 -1,-1.617188 -0.275,-0.16996 -0.52578,-0.211808 -0.70703,-0.142578 z M 97.204355,75.521744 c 2.096686,0 2.067854,0.12402 -0.6875,3 -1.580736,1.64993 -3.565699,3 -4.410157,3 -1.086258,0 -0.884848,-0.45532 0.6875,-1.55664 1.222338,-0.85617 2.222657,-2.20621 2.222657,-3 0,-0.81777 0.948322,-1.44336 2.1875,-1.44336 z m 192.343745,0.08203 c -4.41236,0.0779 -11.12192,1.151756 -15.53125,2.810546 -6.99679,2.63238 -16.04712,10.351918 -15.72851,13.416016 0.16628,1.60101 -0.3105,2.191406 -1.77149,2.191406 -1.45138,0 -2.80575,1.645969 -4.9375,6.000008 -2.43338,4.96993 -3.0115,7.58777 -3.36914,15.25 -0.35228,7.54725 -0.16849,9.25 0.99609,9.25 1.9636,0 7.04613,13.0125 5.71094,14.62109 -1.69915,2.04734 8.93269,11.93638 16.78516,15.61328 5.82187,2.72598 8.12592,3.23295 15.81445,3.46875 5.51606,0.16933 10.54832,-0.23504 13,-1.04492 8.65852,-2.86015 16.21729,-7.97663 20.94727,-14.17774 1.95387,-2.56201 2.43305,-3.91988 1.69531,-4.80859 -1.26819,-1.52808 0.0403,-3.88666 1.92773,-3.47461 1.86947,0.40814 4.83049,-8.34553 4.88672,-14.44726 0.031,-3.36089 -0.35558,-4.75 -1.31836,-4.75 -0.88719,0 -1.56709,-1.73866 -1.95312,-4.99805 -0.77885,-6.57573 -3.61889,-12.81524 -8.08594,-17.75977 -2.2072,-2.443008 -3.39617,-4.610456 -3.03906,-5.541016 0.74867,-1.95092 -6.40852,-7.071688 -8.01758,-5.736328 -1.5094,1.25263 -13.54297,-3.065335 -13.54297,-4.859375 0,-0.75897 -1.82122,-1.070177 -4.46875,-1.023437 z m 38.95898,0.792968 c -0.30926,0.0356 -0.49023,0.235387 -0.49023,0.623047 0,0.27346 1.94644,3.140537 4.32617,6.373047 2.37973,3.23251 4.90911,7.285078 5.6211,9.003906 1.52233,3.67607 4.60892,4.45328 3.47461,0.875 -0.39242,-1.23746 -1.78905,-3.954239 -3.10352,-6.037109 -1.31446,-2.08288 -2.13376,-4.201815 -1.82031,-4.708985 0.63988,-1.03528 -1.55043,-5.003906 -2.76172,-5.003906 -0.43038,0 -0.0446,1.23758 0.85742,2.75 1.43924,2.41325 1.28919,2.350165 -1.22656,-0.509765 -1.85939,-2.11357 -3.94856,-3.472135 -4.87696,-3.365235 z m -9.76757,2.304688 c 1.17827,-0.12609 3.28289,2.002757 2.64843,3.029297 -0.36126,0.58451 -1.24449,0.345296 -2.17968,-0.589844 -0.86468,-0.86467 -1.27272,-1.871831 -0.90625,-2.238281 0.11986,-0.11987 0.26917,-0.183172 0.4375,-0.201172 z m -23.85938,1.820312 c 1.6588,0 9.58493,2.563663 10.92383,3.533203 0.15809,0.11448 -0.26582,1.421597 -0.94141,2.904297 -0.93426,2.0504 -1.721,2.554779 -3.28711,2.105469 -1.1323,-0.32493 -3.29609,-0.860916 -4.80859,-1.191406 -1.5125,-0.33049 -2.75617,-1.107843 -2.76367,-1.726563 -0.008,-0.61871 -0.28555,-2.13755 -0.61719,-3.375 -0.48494,-1.80949 -0.19189,-2.25 1.49414,-2.25 z m -131.14258,0.94336 c 0.93274,-0.0487 1.85062,0.227578 2.57813,0.955078 1.6137,1.61362 -0.0174,2.579468 -1.82422,1.080078 -1.3119,-1.08873 -1.85161,-1.029208 -3.23828,0.357422 -1.55213,1.55205 -1.54715,1.780571 0.0664,3.394531 1.43725,1.43718 2.06542,1.521147 3.7129,0.492187 1.09095,-0.68136 1.98437,-0.861437 1.98437,-0.398437 0,2.77325 -5.64693,2.71674 -7.39453,-0.07422 -1.62129,-2.58923 1.31745,-5.660649 4.11523,-5.806639 z m 163.11914,5.007812 c 0.67139,-0.0486 1.87595,1.960696 5.89063,9.490234 3.36752,6.315712 3.88911,7.952992 2.35937,7.392582 -0.50044,-0.18331 -2.74828,-3.898082 -4.99609,-8.25391 -2.2478,-4.355718 -3.82991,-8.177707 -3.51562,-8.492187 0.0808,-0.0808 0.1658,-0.129779 0.26171,-0.136719 z m -32.87695,2.09375 c 1.23043,0.0212 2.95893,0.380419 4.94922,1.074219 1.88548,0.65724 3.01272,1.635596 2.73047,2.371094 -0.62902,1.63914 5.01298,5.877701 5.9043,4.435547 0.42466,-0.68743 1.28965,-0.478201 2.48046,0.599609 1.03131,0.933295 2.63091,1.400795 3.66602,1.072265 1.20934,-0.383747 2.27927,0.12902 3.13672,1.50196 1.10425,1.767962 1.05317,2.266082 -0.33789,3.283202 -1.40268,1.02564 -1.45703,1.59989 -0.375,3.97461 0.87979,1.93092 1.81588,2.63179 3.07422,2.30273 2.17371,-0.56855 2.44354,1.15927 0.30859,1.97852 -0.825,0.31659 -1.5,1.61463 -1.5,2.88476 0,1.27032 -0.35531,2.45924 -0.78906,2.64258 -1.27378,0.53839 -4.19962,12.29736 -3.15235,12.66797 1.62137,0.57367 1.02669,2.16599 -0.80859,2.16602 -0.9625,2e-5 -3.00792,1.57587 -4.54492,3.50195 -1.537,1.92631 -4.687,4.48078 -7,5.67578 -7.50376,3.87771 -12.88589,4.24852 -22.19727,1.52734 -2.33745,-0.68292 -6.04072,-3.14125 -8.93164,-5.92773 -4.45003,-4.28943 -5.10122,-4.61124 -6.58594,-3.26758 -2.31168,2.0922 -3.65838,1.85698 -4.35742,-0.75976 -0.37949,-1.42064 -0.047,-2.6657 0.9043,-3.37696 1.1525,-0.86172 1.27857,-1.72767 0.53516,-3.68359 -0.64763,-1.70339 -0.63122,-2.66938 0.0508,-2.89649 0.56247,-0.18729 1.141,-2.80474 1.28515,-5.8164 0.14415,-3.01144 1.24619,-7.69452 2.44922,-10.4043 1.70953,-3.85078 1.90816,-5.10335 0.91407,-5.73437 -0.69948,-0.444082 -0.82149,-0.865632 -0.27149,-0.937502 0.55,-0.0719 1.45,-0.19157 2,-0.26563 0.55,-0.0741 3.03394,-1.546898 5.51953,-3.273438 4.90155,-3.40471 10.6048,-5.346678 15.73047,-5.355468 1.7873,-0.003 3.25,-0.45589 3.25,-1.00586 0,-0.65946 0.73246,-0.976298 1.96289,-0.955078 z m 20.00195,1.546875 2.92579,2.802735 c 3.40564,3.26286 7.6202,12.257006 8.60156,18.355476 l 0.68359,4.25 h -3.58789 c -2.52258,0 -3.58789,-0.44538 -3.58789,-1.5 0,-0.825 0.64887,-1.5 1.44141,-1.5 0.79254,0 1.6927,-0.40979 2.00195,-0.91016 0.95592,-1.5465 -0.56315,-4.08984 -2.44336,-4.08984 -2.39503,0 -3.53089,-3.12264 -1.54101,-4.23633 1.3739,-0.76897 1.38114,-1.17511 0.0488,-3.750002 -1.87878,-3.633427 -3.23449,-4.484984 -4.91797,-3.087894 -0.98539,0.81793 -1.65664,0.69799 -2.625,-0.46875 -1.09145,-1.31529 -0.95488,-1.912157 0.84961,-3.716797 z m -75.43945,1.056641 c -1.23696,-0.47466 -4.52539,6.163291 -4.52539,9.13477 0,1.84727 1.98012,1.45317 2.67969,-0.533202 0.33894,-0.96248 1.18633,-3.177844 1.88476,-4.923834 1.03696,-2.59232 1.03152,-3.267444 -0.0391,-3.677734 z m -115.67773,1.810547 c 0.56604,-0.0692 1.11212,-0.0273 1.58007,0.152343 2.46863,0.94729 1.84279,1.971035 -1.17773,1.927735 -3.55754,-0.051 -4.00534,3.783423 -0.5,4.281253 1.23748,0.17574 2.25,-0.16175 2.25,-0.75 0,-0.58823 0.46583,-1.070316 1.03516,-1.070316 0.70185,0 0.69139,0.644036 -0.0352,2.000006 -1.39613,2.608462 -4.49876,2.552262 -6.36719,-0.11524 -0.81467,-1.16312 -1.23765,-2.750244 -0.93945,-3.527344 0.5697,-1.48454 2.45621,-2.690897 4.1543,-2.898437 z m 137.57031,0.974609 c 0.83234,-0.006 1.90191,0.44099 2.80469,1.34375 2.79617,2.796502 1.40115,4.767384 -1.75196,2.474609 -1.32455,-0.96327 -2.42216,-2.063349 -2.43945,-2.443359 -0.0413,-0.90916 0.55438,-1.3688 1.38672,-1.375 z m -130.61524,3.566406 h 34.87891 34.88086 l 5.9375,6.000008 c 4.85679,4.9078 6.53464,6 9.21875,6 2.97922,0 3.28125,0.27618 3.28125,3 v 3 h -19.89844 -19.90039 l -6.62109,-6 -6.61914,-6 h -20.38281 -20.38086 l 2.80273,-3 z m -24.67382,2.000006 c 1.84141,0 5.30572,2.899342 4.46679,3.738282 -0.275,0.275 -1.20908,-0.20927 -2.07617,-1.07617 -2.06123,-2.06124 -4.71236,-1.01004 -4.32226,1.71484 0.2363,1.65069 0.93464,2.07878 3.13476,1.92383 2.36703,-0.16671 2.63125,0.0375 1.625,1.25 -1.56038,1.88021 -3.42494,1.83701 -5.38476,-0.12305 -2.878984,-2.87887 -1.31335,-7.427732 2.55664,-7.427732 z M 5.9445894,106.52175 c 1.728386,0 3.1069392,0.64899 3.4882812,1.64257 0.9304894,2.42492 -0.23009,2.99255 -1.78125,0.8711 -1.684666,-2.304 -4.6347656,-1.35769 -4.6347656,1.48633 0,2.43044 2.6470102,3.75345 4.2675782,2.13281 1.686266,-1.68635 3.1748198,-1.37085 1.7324218,0.36719 -1.780444,2.14519 -5.735454,1.8627 -7,-0.5 -1.59898761,-2.98787 0.3726864,-6 3.9277344,-6 z m 68.1503906,5 c 1.964456,0 4.523753,2.73205 3.509765,3.74609 -0.38326,0.38328 -1.063241,0.10263 -1.511719,-0.62305 -1.210188,-1.95803 -4.576171,-0.93552 -4.576171,1.39063 0,1.63626 0.616926,1.95659 3.5,1.81445 3.255224,-0.16027 3.363989,-0.073 1.558593,1.25 -2.317676,1.69858 -2.194466,1.68756 -4.625,0.38672 -3.518104,-1.8827 -1.88024,-7.96484 2.144532,-7.96484 z m 273.92187,0 c -0.55,0 -1,0.45 -1,1 0,0.55 0.45,1 1,1 0.55,0 1,-0.45 1,-1 0,-0.55 -0.45,-1 -1,-1 z m -158.54492,6 h 14.12891 14.1289 l 0.66992,7.20898 0.66992,7.20898 -11.75976,11.79102 c -6.46799,6.4851 -11.9871,11.79102 -12.26172,11.79102 -0.27461,0 -5.34366,-4.8286 -11.26367,-10.73047 l -10.76367,-10.73242 8.22656,-8.26758 z m 167.23633,1.69336 c -0.2167,-0.21491 -0.67424,1.96459 -1.69532,7.30664 -2.71048,14.18286 -5.89444,21.88605 -13.04296,31.5625 -10.46775,14.16992 -26.33465,23.11092 -45.70313,25.7539 -4.5373,0.6192 -8.25,1.47617 -8.25,1.9043 0,0.86325 0.97651,0.84262 9.07617,-0.20117 18.21184,-2.3469 35.73136,-12.60213 46.48438,-27.20899 8.22996,-11.17977 13.50114,-25.53874 13.33008,-36.31054 -0.0267,-1.68703 -0.0692,-2.6777 -0.19922,-2.80664 z m -98.64258,3.66406 c 1.60914,0.3053 2.00002,3.88608 0.17187,5.22265 -1.57645,1.15288 -1.57614,1.4522 0,4.75782 1.23916,2.59836 1.36571,3.63802 0.48047,3.94922 -1.41362,0.49695 -3.52559,-3.08874 -5.32226,-9.03711 -1.19094,-3.94273 -1.14726,-4.25 0.58789,-4.25 1.02871,0 2.52261,-0.25053 3.32031,-0.55664 0.2766,-0.10614 0.53184,-0.13083 0.76172,-0.0859 z m 90.67187,3.02148 c 0.10514,0.10514 0.17719,0.45463 0.20118,1.03711 0.0433,1.05394 -0.1933,1.64479 -0.52539,1.3125 -0.33229,-0.3323 -0.36823,-1.19414 -0.0801,-1.91601 0.15961,-0.39886 0.29915,-0.53874 0.40429,-0.4336 z m -119.1875,0.082 c 0.18087,-0.0674 0.3086,0.50782 0.3086,1.53907 0,1.3748 -0.2265,1.9375 -0.50391,1.25 -0.27741,-0.6875 -0.27741,-1.8125 0,-2.5 0.0694,-0.17187 0.13502,-0.26661 0.19531,-0.28907 z m 107.1875,0.91797 c 0.10514,0.10514 0.17719,0.45463 0.20118,1.03711 0.0433,1.05394 -0.1933,1.64479 -0.52539,1.3125 -0.33229,-0.3323 -0.36823,-1.19414 -0.0801,-1.91601 0.15961,-0.39886 0.29915,-0.53874 0.40429,-0.4336 z m -20.05468,4.22461 c 0.50701,0.0277 1.25689,0.33979 2.43164,0.94727 2.87577,1.48734 3.49744,2.51973 2.26172,3.75586 -1.06106,1.06106 -6.21289,-2.52333 -5.66797,-3.94336 0.20417,-0.53207 0.46759,-0.7875 0.97461,-0.75977 z m -196.58008,2.59571 c 1.43879,-0.16725 3.15697,0.38715 3.87305,1.25 1.4723,1.77407 0.0231,2.13244 -1.69141,0.41796 -1.62059,-1.62005 -4.26758,-0.29782 -4.26758,2.13282 0,2.43044 2.64699,3.75345 4.26758,2.13281 1.71444,-1.71448 3.16371,-1.3563 1.69141,0.41797 -0.71608,0.86285 -2.43426,1.41725 -3.87305,1.25 -2.23101,-0.25935 -2.58594,-0.78091 -2.58594,-3.80078 0,-3.02007 0.35493,-3.54163 2.58594,-3.80078 z m 124.81445,2.80078 c 1.19115,0 5.10045,6.66517 4.34961,7.41601 -0.88022,0.88 -0.93117,0.83601 -3.16797,-2.7832 -2.29457,-3.71247 -2.53012,-4.63281 -1.18164,-4.63281 z m 87.5918,2.32617 c 0.087,-0.0214 0.16689,-5e-5 0.23242,0.0644 0.26213,0.26213 0.17894,0.95638 -0.18359,1.54297 -0.98605,1.59546 -1.5629,1.28555 -0.88672,-0.47656 0.24426,-0.63654 0.57677,-1.06668 0.83789,-1.13086 z m -1.81836,3.67383 c 0.49007,0 -0.4522,1.81156 -1.95117,3.75 -1.72184,2.22615 -1.8167,1.32271 -0.13086,-1.25 0.90093,-1.375 1.83782,-2.5 2.08203,-2.5 z m -94.23242,2 c -0.24254,0 -0.44141,0.45 -0.44141,1 0,0.55 0.47613,1 1.05859,1 0.58246,0 0.78133,-0.45 0.44141,-1 -0.33992,-0.55 -0.81605,-1 -1.05859,-1 z m 1.29492,3 c -0.73457,0 2.6461,5.25099 6.59961,10.25 1.34851,1.70492 2.66406,2.30138 2.66406,1.20703 0,-0.29901 -1.15039,-1.76151 -2.55664,-3.25 -1.40625,-1.4885 -3.30272,-3.94473 -4.21484,-5.45703 -0.91234,-1.5125 -2.03435,-2.75 -2.49219,-2.75 z m 106.88476,1.66406 c -0.75731,0.42855 -2.824,2.71544 -5.70898,6.58203 -17.38025,23.29537 -49.15262,31.35189 -76.29688,19.34766 -3.08832,-1.36599 -5.61523,-2.11411 -5.61523,-1.66211 0,0.89813 6.69419,3.92326 14.39063,6.50195 5.79028,1.94022 21.15321,2.82385 27.8457,1.60156 17.60664,-3.21545 33.95495,-13.72738 43.24023,-27.80469 2.35142,-3.56475 2.90205,-4.99494 2.14453,-4.5664 z m -94.97656,7.74805 c -0.25881,-0.0384 -0.48054,-0.0147 -0.64648,0.0879 -0.79161,0.48924 -0.44796,1.45627 1.10156,3.10546 2.38896,2.54293 3.45515,2.92315 4.31055,1.53907 0.69253,-1.12054 -2.95394,-4.46363 -4.76563,-4.73242 z m 14.56446,0.70507 c 0.28033,0.0139 0.86363,0.34805 1.88476,1.01172 1.32312,0.85993 4.76875,2.34542 7.65625,3.29883 2.8875,0.95362 5.25,2.1556 5.25,2.67188 0,1.2413 -4.43281,0.13337 -9.94922,-2.48633 -2.44731,-1.1623 -4.65544,-2.77322 -4.90625,-3.58008 -0.19356,-0.6227 -0.21617,-0.92991 0.0645,-0.91602 z m -14.26758,3.88282 c -0.58246,0 -0.78133,0.45 -0.44141,1 0.33992,0.55 0.81605,1 1.05859,1 0.24254,0 0.44141,-0.45 0.44141,-1 0,-0.55 -0.47613,-1 -1.05859,-1 z m 2.14648,2.57812 c -0.5655,0.5655 3.08905,3.35453 4.41211,3.36719 0.55,0.005 -0.11779,-0.84851 -1.48437,-1.89844 -1.36656,-1.05016 -2.68467,-1.7116 -2.92774,-1.46875 z m -157.423823,2.44925 c 1.158347,-0.11848 2.387749,0.33001 3.355469,1.49609 1.802196,2.17161 0.413032,3.05159 -1.615234,1.02344 -1.499528,-1.49957 -1.858476,-1.52049 -3.183594,-0.19531 -2.216166,2.21625 -0.774019,4.98633 2.291015,4.40039 2.785974,-0.53259 3.479186,0.87586 0.738282,1.5 -2.732114,0.62213 -5.25,-1.099 -5.25,-3.58789 0,-2.66485 1.733499,-4.43925 3.664062,-4.63672 z m 169.294923,0.25 c -0.66435,-0.0993 -0.95899,0.23648 -0.95899,1.04297 0,1.73458 8.57049,5.27007 16.35352,6.74609 6.3797,1.20996 6.64648,1.19119 6.64648,-0.47265 0,-0.93971 -1.74153,-1.64188 -5.25,-2.11524 -4.54421,-0.61313 -8.77307,-1.92206 -16,-4.95703 -0.30646,-0.12869 -0.56968,-0.21102 -0.79101,-0.24414 z m 37.29101,9.33008 c 0.26118,0.0695 0.34552,0.23698 0.19141,0.48633 -0.53825,0.87091 -3.44141,1.3125 -3.44141,0.52343 0,-0.21085 0.90119,-0.62034 2.00195,-0.9082 0.55038,-0.14392 0.98687,-0.17104 1.24805,-0.10156 z m -145.69141,4.42773 c 1.28449,-0.053 2.4921,0.23929 2.9043,0.90625 0.32,0.51777 -0.66501,0.85527 -2.18945,0.75 -2.18583,-0.15092 -2.83856,0.28458 -3.0918,2.0625 -0.4324,3.03521 2.63567,4.21573 4.46289,1.7168 1.17053,-1.60079 1.35547,-1.6285 1.35547,-0.21094 0,1.47514 -2.42815,3.63058 -4.17773,3.70899 -0.37322,0.0167 -1.38574,-0.67673 -2.25,-1.54102 -1.8715,-1.8713 -2.0339,-4.56784 -0.37305,-6.22851 0.71341,-0.71343 2.07505,-1.11104 3.35937,-1.16407 z m 171.03711,2.51367 c -0.0363,0.0654 -0.0787,0.13299 -0.11718,0.19922 0.10508,-0.0585 0.19653,-0.11714 0.11718,-0.19922 z m -67.39062,1.10743 c 0.0273,0.0128 0.0548,0.0262 0.082,0.0391 0.026,0.004 0.0522,0.006 0.0781,0.01 0.0214,0.003 0.043,0.005 0.0645,0.008 -0.0731,-0.0215 -0.1527,-0.0346 -0.22461,-0.0566 z"
       sodipodi:nodetypes="ssscccscssccccssccscssssscccccccccccscsssssccsscccccscssssscccccccccccssccccccscccccscccscscccccccccccsscccssccccccccsssccccccsssccsscccccccsccsccccssccccccccscsscsccccccccccsssccccccccccccsssscccscsssscccccccccccssccsscsssscsssssssccccsscsscssccsssccscccscssccscsccsssssscccsssscsssssssscscsssssscssscssccscccssssscscsccscscccsscscssccsscssssccsscccsscccsscccssssssscsssscssssssccsccscsscccccccccsccssssscsssssssscsscsscccsccscsssscscssscscscssssssssssssssssssssccssssccscsccccssscscssscccccssssssscscccscssscccsscsscsscsscssssscsssssssscccsssssssssssssccscssccccccsssscsssssssccsssscscssscssscscsssccscsssssssssssssccccsscssscscccccsscssscssscsssccccssscssccccccsssccscsssscsssscccccccccsscccccccccsscssscssccssccssscscccssssssccccccsccccsccsssccssccscssssscccsssssssscccsssccsscscsscsscsccsscssssscsssssssscsscscccsccccsccssssscscssssssssccccsscssssscscssscsssssssscsssccsccccccccc"
       inkscape:export-filename="imagem_top_2.svg"
       inkscape:export-xdpi="96"
       inkscape:export-ydpi="96" />
  </g>
</svg>
